<mxfile host="app.diagrams.net" modified="2024-03-07T02:13:39.295Z" agent="Mozilla/5.0 (Windows NT 10.0; Win64; x64) AppleWebKit/537.36 (KHTML, like Gecko) Chrome/122.0.0.0 Safari/537.36" etag="MApAgH41HbY9Sw7fJn4v" version="24.0.2" type="device">
  <diagram name="Page-1" id="7vA5k1ekcT5QC32cfVXg">
    <mxGraphModel dx="2220" dy="1185" grid="1" gridSize="10" guides="1" tooltips="1" connect="1" arrows="1" fold="1" page="1" pageScale="1" pageWidth="850" pageHeight="1100" math="0" shadow="0">
      <root>
        <mxCell id="0" />
        <mxCell id="1" parent="0" />
        <mxCell id="Ph7M2T8NQerXe_SHEotg-37" style="edgeStyle=orthogonalEdgeStyle;rounded=0;orthogonalLoop=1;jettySize=auto;html=1;entryX=0.5;entryY=0;entryDx=0;entryDy=0;fontFamily=Helvetica;fontSize=12;fontColor=default;startArrow=none;startFill=0;endArrow=none;endFill=0;curved=1;" edge="1" parent="1" source="Ph7M2T8NQerXe_SHEotg-9" target="Ph7M2T8NQerXe_SHEotg-32">
          <mxGeometry relative="1" as="geometry" />
        </mxCell>
        <mxCell id="Ph7M2T8NQerXe_SHEotg-45" style="edgeStyle=orthogonalEdgeStyle;curved=0;rounded=1;orthogonalLoop=1;jettySize=auto;html=1;entryX=0.5;entryY=1;entryDx=0;entryDy=0;strokeColor=default;align=center;verticalAlign=middle;fontFamily=Helvetica;fontSize=12;fontColor=default;labelBackgroundColor=default;startArrow=none;startFill=0;endArrow=none;endFill=0;" edge="1" parent="1" source="Ph7M2T8NQerXe_SHEotg-9" target="Ph7M2T8NQerXe_SHEotg-35">
          <mxGeometry relative="1" as="geometry" />
        </mxCell>
        <mxCell id="Ph7M2T8NQerXe_SHEotg-9" value="Medical_Staff" style="whiteSpace=wrap;html=1;align=center;fillColor=#b0e3e6;strokeColor=#0e8088;" vertex="1" parent="1">
          <mxGeometry x="580" y="550" width="100" height="40" as="geometry" />
        </mxCell>
        <mxCell id="Ph7M2T8NQerXe_SHEotg-59" style="edgeStyle=orthogonalEdgeStyle;curved=1;rounded=0;orthogonalLoop=1;jettySize=auto;html=1;entryX=0;entryY=0.5;entryDx=0;entryDy=0;strokeColor=default;align=center;verticalAlign=middle;fontFamily=Helvetica;fontSize=12;fontColor=default;labelBackgroundColor=default;startArrow=none;startFill=0;endArrow=none;endFill=0;shape=link;" edge="1" parent="1" source="Ph7M2T8NQerXe_SHEotg-10" target="Ph7M2T8NQerXe_SHEotg-21">
          <mxGeometry relative="1" as="geometry" />
        </mxCell>
        <mxCell id="Ph7M2T8NQerXe_SHEotg-61" value="1" style="edgeLabel;html=1;align=center;verticalAlign=middle;resizable=0;points=[];strokeColor=default;fontFamily=Helvetica;fontSize=12;fontColor=default;labelBackgroundColor=default;fillColor=default;" vertex="1" connectable="0" parent="Ph7M2T8NQerXe_SHEotg-59">
          <mxGeometry x="0.0571" y="-1" relative="1" as="geometry">
            <mxPoint as="offset" />
          </mxGeometry>
        </mxCell>
        <mxCell id="Ph7M2T8NQerXe_SHEotg-112" style="edgeStyle=orthogonalEdgeStyle;curved=0;rounded=0;orthogonalLoop=1;jettySize=auto;html=1;entryX=0.5;entryY=0;entryDx=0;entryDy=0;strokeColor=default;align=center;verticalAlign=middle;fontFamily=Helvetica;fontSize=12;fontColor=default;labelBackgroundColor=default;startArrow=none;startFill=0;endArrow=none;endFill=0;" edge="1" parent="1" source="Ph7M2T8NQerXe_SHEotg-10" target="Ph7M2T8NQerXe_SHEotg-111">
          <mxGeometry relative="1" as="geometry" />
        </mxCell>
        <mxCell id="Ph7M2T8NQerXe_SHEotg-10" value="Hospital" style="whiteSpace=wrap;html=1;align=center;fillColor=#b0e3e6;strokeColor=#0e8088;" vertex="1" parent="1">
          <mxGeometry x="1230" y="420" width="100" height="40" as="geometry" />
        </mxCell>
        <mxCell id="Ph7M2T8NQerXe_SHEotg-54" style="edgeStyle=orthogonalEdgeStyle;curved=0;rounded=1;orthogonalLoop=1;jettySize=auto;html=1;strokeColor=default;align=center;verticalAlign=middle;fontFamily=Helvetica;fontSize=12;fontColor=default;labelBackgroundColor=default;startArrow=none;startFill=0;endArrow=none;endFill=0;entryX=0.5;entryY=1;entryDx=0;entryDy=0;" edge="1" parent="1" source="Ph7M2T8NQerXe_SHEotg-11" target="Ph7M2T8NQerXe_SHEotg-32">
          <mxGeometry relative="1" as="geometry">
            <mxPoint x="600" y="700" as="targetPoint" />
            <Array as="points">
              <mxPoint x="220" y="650" />
              <mxPoint x="630" y="650" />
            </Array>
          </mxGeometry>
        </mxCell>
        <mxCell id="Ph7M2T8NQerXe_SHEotg-81" style="edgeStyle=orthogonalEdgeStyle;curved=1;rounded=0;orthogonalLoop=1;jettySize=auto;html=1;entryX=0.5;entryY=0;entryDx=0;entryDy=0;strokeColor=default;align=center;verticalAlign=middle;fontFamily=Helvetica;fontSize=12;fontColor=default;labelBackgroundColor=default;startArrow=none;startFill=0;endArrow=none;endFill=0;" edge="1" parent="1" source="Ph7M2T8NQerXe_SHEotg-11" target="Ph7M2T8NQerXe_SHEotg-27">
          <mxGeometry relative="1" as="geometry" />
        </mxCell>
        <mxCell id="Ph7M2T8NQerXe_SHEotg-82" value="1" style="edgeLabel;html=1;align=center;verticalAlign=middle;resizable=0;points=[];strokeColor=default;fontFamily=Helvetica;fontSize=12;fontColor=default;labelBackgroundColor=default;fillColor=default;" vertex="1" connectable="0" parent="Ph7M2T8NQerXe_SHEotg-81">
          <mxGeometry x="0.0213" y="-2" relative="1" as="geometry">
            <mxPoint x="2" as="offset" />
          </mxGeometry>
        </mxCell>
        <mxCell id="Ph7M2T8NQerXe_SHEotg-83" style="edgeStyle=orthogonalEdgeStyle;curved=1;rounded=0;orthogonalLoop=1;jettySize=auto;html=1;strokeColor=default;align=center;verticalAlign=middle;fontFamily=Helvetica;fontSize=12;fontColor=default;labelBackgroundColor=default;startArrow=none;startFill=0;endArrow=none;endFill=0;" edge="1" parent="1" source="Ph7M2T8NQerXe_SHEotg-11" target="Ph7M2T8NQerXe_SHEotg-28">
          <mxGeometry relative="1" as="geometry" />
        </mxCell>
        <mxCell id="Ph7M2T8NQerXe_SHEotg-84" value="N" style="edgeLabel;html=1;align=center;verticalAlign=middle;resizable=0;points=[];strokeColor=default;fontFamily=Helvetica;fontSize=12;fontColor=default;labelBackgroundColor=default;fillColor=default;" vertex="1" connectable="0" parent="Ph7M2T8NQerXe_SHEotg-83">
          <mxGeometry x="0.0188" y="1" relative="1" as="geometry">
            <mxPoint as="offset" />
          </mxGeometry>
        </mxCell>
        <mxCell id="Ph7M2T8NQerXe_SHEotg-11" value="Doctor" style="whiteSpace=wrap;html=1;align=center;fillColor=#b0e3e6;strokeColor=#0e8088;" vertex="1" parent="1">
          <mxGeometry x="170" y="790" width="100" height="40" as="geometry" />
        </mxCell>
        <mxCell id="Ph7M2T8NQerXe_SHEotg-12" value="Department" style="whiteSpace=wrap;html=1;align=center;fillColor=#b0e3e6;strokeColor=#0e8088;" vertex="1" parent="1">
          <mxGeometry x="1395" y="650" width="100" height="40" as="geometry" />
        </mxCell>
        <mxCell id="Ph7M2T8NQerXe_SHEotg-87" style="edgeStyle=orthogonalEdgeStyle;curved=1;rounded=0;orthogonalLoop=1;jettySize=auto;html=1;entryX=0.5;entryY=0;entryDx=0;entryDy=0;strokeColor=default;align=center;verticalAlign=middle;fontFamily=Helvetica;fontSize=12;fontColor=default;labelBackgroundColor=default;startArrow=none;startFill=0;endArrow=none;endFill=0;shape=link;" edge="1" parent="1" source="Ph7M2T8NQerXe_SHEotg-14" target="Ph7M2T8NQerXe_SHEotg-26">
          <mxGeometry relative="1" as="geometry" />
        </mxCell>
        <mxCell id="Ph7M2T8NQerXe_SHEotg-88" value="M" style="edgeLabel;html=1;align=center;verticalAlign=middle;resizable=0;points=[];strokeColor=default;fontFamily=Helvetica;fontSize=12;fontColor=default;labelBackgroundColor=default;fillColor=default;" vertex="1" connectable="0" parent="Ph7M2T8NQerXe_SHEotg-87">
          <mxGeometry x="0.0319" y="1" relative="1" as="geometry">
            <mxPoint x="-1" y="-3" as="offset" />
          </mxGeometry>
        </mxCell>
        <mxCell id="Ph7M2T8NQerXe_SHEotg-14" value="Nurse" style="whiteSpace=wrap;html=1;align=center;fillColor=#b0e3e6;strokeColor=#0e8088;" vertex="1" parent="1">
          <mxGeometry x="480" y="790" width="100" height="40" as="geometry" />
        </mxCell>
        <mxCell id="Ph7M2T8NQerXe_SHEotg-15" value="Pharmacist" style="whiteSpace=wrap;html=1;align=center;fillColor=#b0e3e6;strokeColor=#0e8088;" vertex="1" parent="1">
          <mxGeometry x="740" y="790" width="100" height="40" as="geometry" />
        </mxCell>
        <mxCell id="Ph7M2T8NQerXe_SHEotg-16" value="Medicine" style="whiteSpace=wrap;html=1;align=center;fillColor=#b0e3e6;strokeColor=#0e8088;" vertex="1" parent="1">
          <mxGeometry x="740" y="1050" width="100" height="40" as="geometry" />
        </mxCell>
        <mxCell id="Ph7M2T8NQerXe_SHEotg-68" style="edgeStyle=orthogonalEdgeStyle;curved=0;rounded=0;orthogonalLoop=1;jettySize=auto;html=1;entryX=0;entryY=0.5;entryDx=0;entryDy=0;strokeColor=default;align=center;verticalAlign=middle;fontFamily=Helvetica;fontSize=12;fontColor=default;labelBackgroundColor=default;startArrow=none;startFill=0;endArrow=none;endFill=0;" edge="1" parent="1" source="Ph7M2T8NQerXe_SHEotg-17" target="Ph7M2T8NQerXe_SHEotg-50">
          <mxGeometry relative="1" as="geometry">
            <Array as="points">
              <mxPoint x="540" y="1350" />
            </Array>
          </mxGeometry>
        </mxCell>
        <mxCell id="Ph7M2T8NQerXe_SHEotg-69" value="1" style="edgeLabel;html=1;align=center;verticalAlign=middle;resizable=0;points=[];strokeColor=default;fontFamily=Helvetica;fontSize=12;fontColor=default;labelBackgroundColor=default;fillColor=default;" vertex="1" connectable="0" parent="Ph7M2T8NQerXe_SHEotg-68">
          <mxGeometry x="0.1444" y="-3" relative="1" as="geometry">
            <mxPoint x="-3" y="-3" as="offset" />
          </mxGeometry>
        </mxCell>
        <mxCell id="Ph7M2T8NQerXe_SHEotg-75" style="edgeStyle=orthogonalEdgeStyle;curved=1;rounded=0;orthogonalLoop=1;jettySize=auto;html=1;entryX=0;entryY=0.5;entryDx=0;entryDy=0;strokeColor=default;align=center;verticalAlign=middle;fontFamily=Helvetica;fontSize=12;fontColor=default;labelBackgroundColor=default;startArrow=none;startFill=0;endArrow=none;endFill=0;" edge="1" parent="1" source="Ph7M2T8NQerXe_SHEotg-17" target="Ph7M2T8NQerXe_SHEotg-25">
          <mxGeometry relative="1" as="geometry" />
        </mxCell>
        <mxCell id="Ph7M2T8NQerXe_SHEotg-76" value="M" style="edgeLabel;html=1;align=center;verticalAlign=middle;resizable=0;points=[];strokeColor=default;fontFamily=Helvetica;fontSize=12;fontColor=default;labelBackgroundColor=default;fillColor=default;" vertex="1" connectable="0" parent="Ph7M2T8NQerXe_SHEotg-75">
          <mxGeometry x="0.0433" y="-1" relative="1" as="geometry">
            <mxPoint as="offset" />
          </mxGeometry>
        </mxCell>
        <mxCell id="Ph7M2T8NQerXe_SHEotg-77" style="edgeStyle=orthogonalEdgeStyle;curved=1;rounded=0;orthogonalLoop=1;jettySize=auto;html=1;entryX=0.5;entryY=1;entryDx=0;entryDy=0;strokeColor=default;align=center;verticalAlign=middle;fontFamily=Helvetica;fontSize=12;fontColor=default;labelBackgroundColor=default;startArrow=none;startFill=0;endArrow=none;endFill=0;" edge="1" parent="1" source="Ph7M2T8NQerXe_SHEotg-17" target="Ph7M2T8NQerXe_SHEotg-26">
          <mxGeometry relative="1" as="geometry" />
        </mxCell>
        <mxCell id="Ph7M2T8NQerXe_SHEotg-78" value="N" style="edgeLabel;html=1;align=center;verticalAlign=middle;resizable=0;points=[];strokeColor=default;fontFamily=Helvetica;fontSize=12;fontColor=default;labelBackgroundColor=default;fillColor=default;" vertex="1" connectable="0" parent="Ph7M2T8NQerXe_SHEotg-77">
          <mxGeometry x="-0.0356" y="2" relative="1" as="geometry">
            <mxPoint x="2" y="2" as="offset" />
          </mxGeometry>
        </mxCell>
        <mxCell id="Ph7M2T8NQerXe_SHEotg-17" value="Patient" style="whiteSpace=wrap;html=1;align=center;fillColor=#b0e3e6;strokeColor=#0e8088;" vertex="1" parent="1">
          <mxGeometry x="480" y="1240" width="100" height="40" as="geometry" />
        </mxCell>
        <mxCell id="Ph7M2T8NQerXe_SHEotg-93" style="edgeStyle=orthogonalEdgeStyle;curved=1;rounded=0;orthogonalLoop=1;jettySize=auto;html=1;entryX=0.5;entryY=0;entryDx=0;entryDy=0;strokeColor=default;align=center;verticalAlign=middle;fontFamily=Helvetica;fontSize=12;fontColor=default;labelBackgroundColor=default;startArrow=none;startFill=0;endArrow=none;endFill=0;shape=link;" edge="1" parent="1" source="Ph7M2T8NQerXe_SHEotg-18" target="Ph7M2T8NQerXe_SHEotg-22">
          <mxGeometry relative="1" as="geometry" />
        </mxCell>
        <mxCell id="Ph7M2T8NQerXe_SHEotg-94" value="1" style="edgeLabel;html=1;align=center;verticalAlign=middle;resizable=0;points=[];strokeColor=default;fontFamily=Helvetica;fontSize=12;fontColor=default;labelBackgroundColor=default;fillColor=default;" vertex="1" connectable="0" parent="Ph7M2T8NQerXe_SHEotg-93">
          <mxGeometry x="-0.0014" y="-1" relative="1" as="geometry">
            <mxPoint as="offset" />
          </mxGeometry>
        </mxCell>
        <mxCell id="Ph7M2T8NQerXe_SHEotg-172" style="edgeStyle=orthogonalEdgeStyle;curved=0;rounded=1;orthogonalLoop=1;jettySize=auto;html=1;entryX=1;entryY=0.5;entryDx=0;entryDy=0;strokeColor=default;align=center;verticalAlign=middle;fontFamily=Helvetica;fontSize=12;fontColor=default;labelBackgroundColor=default;startArrow=none;startFill=0;endArrow=none;endFill=0;" edge="1" parent="1" source="Ph7M2T8NQerXe_SHEotg-18" target="Ph7M2T8NQerXe_SHEotg-35">
          <mxGeometry relative="1" as="geometry" />
        </mxCell>
        <mxCell id="Ph7M2T8NQerXe_SHEotg-18" value="receptionist" style="whiteSpace=wrap;html=1;align=center;fillColor=#b0e3e6;strokeColor=#0e8088;" vertex="1" parent="1">
          <mxGeometry x="1130" y="790" width="100" height="40" as="geometry" />
        </mxCell>
        <mxCell id="Ph7M2T8NQerXe_SHEotg-66" style="edgeStyle=orthogonalEdgeStyle;curved=1;rounded=0;orthogonalLoop=1;jettySize=auto;html=1;entryX=0.5;entryY=0;entryDx=0;entryDy=0;strokeColor=default;align=center;verticalAlign=middle;fontFamily=Helvetica;fontSize=12;fontColor=default;labelBackgroundColor=default;startArrow=none;startFill=0;endArrow=none;endFill=0;shape=link;" edge="1" parent="1" source="Ph7M2T8NQerXe_SHEotg-19" target="Ph7M2T8NQerXe_SHEotg-50">
          <mxGeometry relative="1" as="geometry" />
        </mxCell>
        <mxCell id="Ph7M2T8NQerXe_SHEotg-67" value="M" style="edgeLabel;html=1;align=center;verticalAlign=middle;resizable=0;points=[];strokeColor=default;fontFamily=Helvetica;fontSize=12;fontColor=default;labelBackgroundColor=default;fillColor=default;" vertex="1" connectable="0" parent="Ph7M2T8NQerXe_SHEotg-66">
          <mxGeometry x="0.0308" y="1" relative="1" as="geometry">
            <mxPoint as="offset" />
          </mxGeometry>
        </mxCell>
        <mxCell id="Ph7M2T8NQerXe_SHEotg-19" value="Appointment" style="whiteSpace=wrap;html=1;align=center;fillColor=#b0e3e6;strokeColor=#0e8088;" vertex="1" parent="1">
          <mxGeometry x="1130" y="1150" width="100" height="40" as="geometry" />
        </mxCell>
        <mxCell id="Ph7M2T8NQerXe_SHEotg-57" style="edgeStyle=orthogonalEdgeStyle;curved=1;rounded=0;orthogonalLoop=1;jettySize=auto;html=1;entryX=0;entryY=0.5;entryDx=0;entryDy=0;strokeColor=default;align=center;verticalAlign=middle;fontFamily=Helvetica;fontSize=12;fontColor=default;labelBackgroundColor=default;startArrow=none;startFill=0;endArrow=none;endFill=0;shape=link;" edge="1" parent="1" source="Ph7M2T8NQerXe_SHEotg-20" target="Ph7M2T8NQerXe_SHEotg-10">
          <mxGeometry relative="1" as="geometry" />
        </mxCell>
        <mxCell id="Ph7M2T8NQerXe_SHEotg-58" value="M" style="edgeLabel;html=1;align=center;verticalAlign=middle;resizable=0;points=[];strokeColor=default;fontFamily=Helvetica;fontSize=12;fontColor=default;labelBackgroundColor=default;fillColor=default;" vertex="1" connectable="0" parent="Ph7M2T8NQerXe_SHEotg-57">
          <mxGeometry x="-0.0173" y="2" relative="1" as="geometry">
            <mxPoint x="1" y="2" as="offset" />
          </mxGeometry>
        </mxCell>
        <mxCell id="Ph7M2T8NQerXe_SHEotg-20" value="Work_for" style="shape=rhombus;perimeter=rhombusPerimeter;whiteSpace=wrap;html=1;align=center;strokeColor=#b85450;verticalAlign=middle;fontFamily=Helvetica;fontSize=12;fillColor=#f8cecc;gradientColor=#ea6b66;" vertex="1" parent="1">
          <mxGeometry x="1050" y="410" width="90" height="60" as="geometry" />
        </mxCell>
        <mxCell id="Ph7M2T8NQerXe_SHEotg-62" style="edgeStyle=orthogonalEdgeStyle;curved=1;rounded=0;orthogonalLoop=1;jettySize=auto;html=1;exitX=0.5;exitY=1;exitDx=0;exitDy=0;strokeColor=default;align=center;verticalAlign=middle;fontFamily=Helvetica;fontSize=12;fontColor=default;labelBackgroundColor=default;startArrow=none;startFill=0;endArrow=none;endFill=0;shape=link;" edge="1" parent="1" source="Ph7M2T8NQerXe_SHEotg-21" target="Ph7M2T8NQerXe_SHEotg-12">
          <mxGeometry relative="1" as="geometry" />
        </mxCell>
        <mxCell id="Ph7M2T8NQerXe_SHEotg-63" value="N" style="edgeLabel;html=1;align=center;verticalAlign=middle;resizable=0;points=[];strokeColor=default;fontFamily=Helvetica;fontSize=12;fontColor=default;labelBackgroundColor=default;fillColor=default;" vertex="1" connectable="0" parent="Ph7M2T8NQerXe_SHEotg-62">
          <mxGeometry x="0.0389" y="-1" relative="1" as="geometry">
            <mxPoint as="offset" />
          </mxGeometry>
        </mxCell>
        <mxCell id="Ph7M2T8NQerXe_SHEotg-21" value="Has" style="shape=rhombus;perimeter=rhombusPerimeter;whiteSpace=wrap;html=1;align=center;strokeColor=#b85450;verticalAlign=middle;fontFamily=Helvetica;fontSize=12;fillColor=#f8cecc;gradientColor=#ea6b66;" vertex="1" parent="1">
          <mxGeometry x="1400" y="410" width="90" height="60" as="geometry" />
        </mxCell>
        <mxCell id="Ph7M2T8NQerXe_SHEotg-64" style="edgeStyle=orthogonalEdgeStyle;curved=1;rounded=0;orthogonalLoop=1;jettySize=auto;html=1;entryX=0.5;entryY=0;entryDx=0;entryDy=0;strokeColor=default;align=center;verticalAlign=middle;fontFamily=Helvetica;fontSize=12;fontColor=default;labelBackgroundColor=default;startArrow=none;startFill=0;endArrow=none;endFill=0;shape=link;" edge="1" parent="1" source="Ph7M2T8NQerXe_SHEotg-22" target="Ph7M2T8NQerXe_SHEotg-19">
          <mxGeometry relative="1" as="geometry" />
        </mxCell>
        <mxCell id="Ph7M2T8NQerXe_SHEotg-65" value="N" style="edgeLabel;html=1;align=center;verticalAlign=middle;resizable=0;points=[];strokeColor=default;fontFamily=Helvetica;fontSize=12;fontColor=default;labelBackgroundColor=default;fillColor=default;" vertex="1" connectable="0" parent="Ph7M2T8NQerXe_SHEotg-64">
          <mxGeometry x="-0.0071" relative="1" as="geometry">
            <mxPoint as="offset" />
          </mxGeometry>
        </mxCell>
        <mxCell id="Ph7M2T8NQerXe_SHEotg-22" value="Schedule" style="shape=rhombus;perimeter=rhombusPerimeter;whiteSpace=wrap;html=1;align=center;strokeColor=#b85450;verticalAlign=middle;fontFamily=Helvetica;fontSize=12;fillColor=#f8cecc;gradientColor=#ea6b66;" vertex="1" parent="1">
          <mxGeometry x="1135" y="950" width="90" height="60" as="geometry" />
        </mxCell>
        <mxCell id="Ph7M2T8NQerXe_SHEotg-89" style="edgeStyle=orthogonalEdgeStyle;curved=1;rounded=0;orthogonalLoop=1;jettySize=auto;html=1;entryX=0.5;entryY=1;entryDx=0;entryDy=0;strokeColor=default;align=center;verticalAlign=middle;fontFamily=Helvetica;fontSize=12;fontColor=default;labelBackgroundColor=default;startArrow=none;startFill=0;endArrow=none;endFill=0;shape=link;" edge="1" parent="1" source="Ph7M2T8NQerXe_SHEotg-24" target="Ph7M2T8NQerXe_SHEotg-15">
          <mxGeometry relative="1" as="geometry" />
        </mxCell>
        <mxCell id="Ph7M2T8NQerXe_SHEotg-90" value="1" style="edgeLabel;html=1;align=center;verticalAlign=middle;resizable=0;points=[];strokeColor=default;fontFamily=Helvetica;fontSize=12;fontColor=default;labelBackgroundColor=default;fillColor=default;" vertex="1" connectable="0" parent="Ph7M2T8NQerXe_SHEotg-89">
          <mxGeometry x="0.031" y="-1" relative="1" as="geometry">
            <mxPoint x="-1" as="offset" />
          </mxGeometry>
        </mxCell>
        <mxCell id="Ph7M2T8NQerXe_SHEotg-91" style="edgeStyle=orthogonalEdgeStyle;curved=1;rounded=0;orthogonalLoop=1;jettySize=auto;html=1;entryX=0.5;entryY=0;entryDx=0;entryDy=0;strokeColor=default;align=center;verticalAlign=middle;fontFamily=Helvetica;fontSize=12;fontColor=default;labelBackgroundColor=default;startArrow=none;startFill=0;endArrow=none;endFill=0;shape=link;" edge="1" parent="1" source="Ph7M2T8NQerXe_SHEotg-24" target="Ph7M2T8NQerXe_SHEotg-16">
          <mxGeometry relative="1" as="geometry" />
        </mxCell>
        <mxCell id="Ph7M2T8NQerXe_SHEotg-92" value="N" style="edgeLabel;html=1;align=center;verticalAlign=middle;resizable=0;points=[];strokeColor=default;fontFamily=Helvetica;fontSize=12;fontColor=default;labelBackgroundColor=default;fillColor=default;" vertex="1" connectable="0" parent="Ph7M2T8NQerXe_SHEotg-91">
          <mxGeometry x="0.0048" y="-2" relative="1" as="geometry">
            <mxPoint x="2" as="offset" />
          </mxGeometry>
        </mxCell>
        <mxCell id="Ph7M2T8NQerXe_SHEotg-24" value="Provide" style="shape=rhombus;perimeter=rhombusPerimeter;whiteSpace=wrap;html=1;align=center;fillColor=#f8cecc;gradientColor=#ea6b66;strokeColor=#b85450;" vertex="1" parent="1">
          <mxGeometry x="745" y="910" width="90" height="60" as="geometry" />
        </mxCell>
        <mxCell id="Ph7M2T8NQerXe_SHEotg-70" style="edgeStyle=orthogonalEdgeStyle;curved=1;rounded=0;orthogonalLoop=1;jettySize=auto;html=1;entryX=0.5;entryY=1;entryDx=0;entryDy=0;strokeColor=default;align=center;verticalAlign=middle;fontFamily=Helvetica;fontSize=12;fontColor=default;labelBackgroundColor=default;startArrow=none;startFill=0;endArrow=none;endFill=0;" edge="1" parent="1" source="Ph7M2T8NQerXe_SHEotg-25" target="Ph7M2T8NQerXe_SHEotg-16">
          <mxGeometry relative="1" as="geometry" />
        </mxCell>
        <mxCell id="Ph7M2T8NQerXe_SHEotg-73" value="N" style="edgeLabel;html=1;align=center;verticalAlign=middle;resizable=0;points=[];strokeColor=default;fontFamily=Helvetica;fontSize=12;fontColor=default;labelBackgroundColor=default;fillColor=default;" vertex="1" connectable="0" parent="Ph7M2T8NQerXe_SHEotg-70">
          <mxGeometry x="-0.0396" y="1" relative="1" as="geometry">
            <mxPoint x="1" as="offset" />
          </mxGeometry>
        </mxCell>
        <mxCell id="Ph7M2T8NQerXe_SHEotg-25" value="Take" style="shape=rhombus;perimeter=rhombusPerimeter;whiteSpace=wrap;html=1;align=center;fillColor=#f8cecc;gradientColor=#ea6b66;strokeColor=#b85450;" vertex="1" parent="1">
          <mxGeometry x="745" y="1230" width="90" height="60" as="geometry" />
        </mxCell>
        <mxCell id="Ph7M2T8NQerXe_SHEotg-26" value="Help" style="shape=rhombus;perimeter=rhombusPerimeter;whiteSpace=wrap;html=1;align=center;fillColor=#f8cecc;gradientColor=#ea6b66;strokeColor=#b85450;" vertex="1" parent="1">
          <mxGeometry x="485" y="990" width="90" height="60" as="geometry" />
        </mxCell>
        <mxCell id="Ph7M2T8NQerXe_SHEotg-79" style="edgeStyle=orthogonalEdgeStyle;curved=1;rounded=0;orthogonalLoop=1;jettySize=auto;html=1;strokeColor=default;align=center;verticalAlign=middle;fontFamily=Helvetica;fontSize=12;fontColor=default;labelBackgroundColor=default;startArrow=none;startFill=0;endArrow=none;endFill=0;shape=link;entryX=0;entryY=0.5;entryDx=0;entryDy=0;" edge="1" parent="1" source="Ph7M2T8NQerXe_SHEotg-27" target="Ph7M2T8NQerXe_SHEotg-17">
          <mxGeometry relative="1" as="geometry">
            <mxPoint x="470" y="1260" as="targetPoint" />
            <Array as="points">
              <mxPoint x="220" y="1260" />
            </Array>
          </mxGeometry>
        </mxCell>
        <mxCell id="Ph7M2T8NQerXe_SHEotg-80" value="N" style="edgeLabel;html=1;align=center;verticalAlign=middle;resizable=0;points=[];strokeColor=default;fontFamily=Helvetica;fontSize=12;fontColor=default;labelBackgroundColor=default;fillColor=default;" vertex="1" connectable="0" parent="Ph7M2T8NQerXe_SHEotg-79">
          <mxGeometry x="0.2479" y="-1" relative="1" as="geometry">
            <mxPoint y="-1" as="offset" />
          </mxGeometry>
        </mxCell>
        <mxCell id="Ph7M2T8NQerXe_SHEotg-27" value="Examine" style="shape=rhombus;perimeter=rhombusPerimeter;whiteSpace=wrap;html=1;align=center;fillColor=#f8cecc;gradientColor=#ea6b66;strokeColor=#b85450;" vertex="1" parent="1">
          <mxGeometry x="175" y="1030" width="90" height="60" as="geometry" />
        </mxCell>
        <mxCell id="Ph7M2T8NQerXe_SHEotg-85" style="edgeStyle=orthogonalEdgeStyle;curved=1;rounded=0;orthogonalLoop=1;jettySize=auto;html=1;entryX=0;entryY=0.5;entryDx=0;entryDy=0;strokeColor=default;align=center;verticalAlign=middle;fontFamily=Helvetica;fontSize=12;fontColor=default;labelBackgroundColor=default;startArrow=none;startFill=0;endArrow=none;endFill=0;shape=link;" edge="1" parent="1" source="Ph7M2T8NQerXe_SHEotg-28" target="Ph7M2T8NQerXe_SHEotg-14">
          <mxGeometry relative="1" as="geometry" />
        </mxCell>
        <mxCell id="Ph7M2T8NQerXe_SHEotg-86" value="M" style="edgeLabel;html=1;align=center;verticalAlign=middle;resizable=0;points=[];strokeColor=default;fontFamily=Helvetica;fontSize=12;fontColor=default;labelBackgroundColor=default;fillColor=default;" vertex="1" connectable="0" parent="Ph7M2T8NQerXe_SHEotg-85">
          <mxGeometry x="0.0465" relative="1" as="geometry">
            <mxPoint as="offset" />
          </mxGeometry>
        </mxCell>
        <mxCell id="Ph7M2T8NQerXe_SHEotg-28" value="Order" style="shape=rhombus;perimeter=rhombusPerimeter;whiteSpace=wrap;html=1;align=center;fillColor=#f8cecc;strokeColor=#b85450;gradientColor=#ea6b66;" vertex="1" parent="1">
          <mxGeometry x="335" y="780" width="90" height="60" as="geometry" />
        </mxCell>
        <mxCell id="Ph7M2T8NQerXe_SHEotg-39" style="edgeStyle=orthogonalEdgeStyle;curved=0;rounded=1;orthogonalLoop=1;jettySize=auto;html=1;exitX=0.5;exitY=1;exitDx=0;exitDy=0;entryX=0.5;entryY=0;entryDx=0;entryDy=0;strokeColor=default;align=center;verticalAlign=middle;fontFamily=Helvetica;fontSize=12;fontColor=default;labelBackgroundColor=default;startArrow=none;startFill=0;endArrow=none;endFill=0;" edge="1" parent="1" source="Ph7M2T8NQerXe_SHEotg-32" target="Ph7M2T8NQerXe_SHEotg-14">
          <mxGeometry relative="1" as="geometry" />
        </mxCell>
        <mxCell id="Ph7M2T8NQerXe_SHEotg-32" value="d" style="ellipse;whiteSpace=wrap;html=1;aspect=fixed;" vertex="1" parent="1">
          <mxGeometry x="620" y="640" width="20" height="20" as="geometry" />
        </mxCell>
        <mxCell id="Ph7M2T8NQerXe_SHEotg-35" value="d" style="ellipse;whiteSpace=wrap;html=1;aspect=fixed;" vertex="1" parent="1">
          <mxGeometry x="860" y="530" width="20" height="20" as="geometry" />
        </mxCell>
        <mxCell id="Ph7M2T8NQerXe_SHEotg-55" style="edgeStyle=orthogonalEdgeStyle;curved=1;rounded=0;orthogonalLoop=1;jettySize=auto;html=1;entryX=0;entryY=0.5;entryDx=0;entryDy=0;strokeColor=default;align=center;verticalAlign=middle;fontFamily=Helvetica;fontSize=12;fontColor=default;labelBackgroundColor=default;startArrow=none;startFill=0;endArrow=none;endFill=0;shape=link;" edge="1" parent="1" source="Ph7M2T8NQerXe_SHEotg-36" target="Ph7M2T8NQerXe_SHEotg-20">
          <mxGeometry relative="1" as="geometry" />
        </mxCell>
        <mxCell id="Ph7M2T8NQerXe_SHEotg-56" value="N" style="edgeLabel;html=1;align=center;verticalAlign=middle;resizable=0;points=[];strokeColor=default;fontFamily=Helvetica;fontSize=12;fontColor=default;labelBackgroundColor=default;fillColor=default;" vertex="1" connectable="0" parent="Ph7M2T8NQerXe_SHEotg-55">
          <mxGeometry x="-0.0156" y="4" relative="1" as="geometry">
            <mxPoint y="4" as="offset" />
          </mxGeometry>
        </mxCell>
        <mxCell id="Ph7M2T8NQerXe_SHEotg-36" value="Employee" style="whiteSpace=wrap;html=1;align=center;strokeColor=#0e8088;verticalAlign=middle;fontFamily=Helvetica;fontSize=12;fillColor=#b0e3e6;" vertex="1" parent="1">
          <mxGeometry x="850" y="420" width="100" height="40" as="geometry" />
        </mxCell>
        <mxCell id="Ph7M2T8NQerXe_SHEotg-40" style="edgeStyle=orthogonalEdgeStyle;curved=0;rounded=1;orthogonalLoop=1;jettySize=auto;html=1;exitX=0.5;exitY=1;exitDx=0;exitDy=0;strokeColor=default;align=center;verticalAlign=middle;fontFamily=Helvetica;fontSize=12;fontColor=default;labelBackgroundColor=default;startArrow=none;startFill=0;endArrow=none;endFill=0;entryX=0.5;entryY=0;entryDx=0;entryDy=0;" edge="1" parent="1" source="Ph7M2T8NQerXe_SHEotg-32" target="Ph7M2T8NQerXe_SHEotg-15">
          <mxGeometry relative="1" as="geometry">
            <mxPoint x="690" y="740" as="targetPoint" />
          </mxGeometry>
        </mxCell>
        <mxCell id="Ph7M2T8NQerXe_SHEotg-50" value="Reserve" style="shape=rhombus;perimeter=rhombusPerimeter;whiteSpace=wrap;html=1;align=center;fillColor=#f8cecc;gradientColor=#ea6b66;strokeColor=#b85450;" vertex="1" parent="1">
          <mxGeometry x="1135" y="1320" width="90" height="60" as="geometry" />
        </mxCell>
        <mxCell id="Ph7M2T8NQerXe_SHEotg-106" style="edgeStyle=orthogonalEdgeStyle;curved=1;rounded=0;orthogonalLoop=1;jettySize=auto;html=1;entryX=1;entryY=0.5;entryDx=0;entryDy=0;strokeColor=default;align=center;verticalAlign=middle;fontFamily=Helvetica;fontSize=12;fontColor=default;labelBackgroundColor=default;startArrow=none;startFill=0;endArrow=none;endFill=0;" edge="1" parent="1" source="Ph7M2T8NQerXe_SHEotg-95" target="Ph7M2T8NQerXe_SHEotg-12">
          <mxGeometry relative="1" as="geometry" />
        </mxCell>
        <mxCell id="Ph7M2T8NQerXe_SHEotg-95" value="DeptNo" style="ellipse;whiteSpace=wrap;html=1;align=center;strokeColor=default;verticalAlign=middle;fontFamily=Helvetica;fontSize=12;fontColor=default;labelBackgroundColor=default;fillColor=default;" vertex="1" parent="1">
          <mxGeometry x="1560" y="650" width="60" height="40" as="geometry" />
        </mxCell>
        <mxCell id="Ph7M2T8NQerXe_SHEotg-103" style="edgeStyle=orthogonalEdgeStyle;curved=0;rounded=0;orthogonalLoop=1;jettySize=auto;html=1;entryX=0.791;entryY=1.013;entryDx=0;entryDy=0;strokeColor=default;align=center;verticalAlign=middle;fontFamily=Helvetica;fontSize=12;fontColor=default;labelBackgroundColor=default;startArrow=none;startFill=0;endArrow=none;endFill=0;entryPerimeter=0;" edge="1" parent="1" source="Ph7M2T8NQerXe_SHEotg-97" target="Ph7M2T8NQerXe_SHEotg-12">
          <mxGeometry relative="1" as="geometry" />
        </mxCell>
        <mxCell id="Ph7M2T8NQerXe_SHEotg-97" value="&lt;u&gt;id&lt;/u&gt;" style="ellipse;whiteSpace=wrap;html=1;align=center;strokeColor=default;verticalAlign=middle;fontFamily=Helvetica;fontSize=12;fontColor=default;labelBackgroundColor=default;fillColor=default;" vertex="1" parent="1">
          <mxGeometry x="1495" y="730" width="60" height="40" as="geometry" />
        </mxCell>
        <mxCell id="Ph7M2T8NQerXe_SHEotg-105" style="edgeStyle=orthogonalEdgeStyle;curved=0;rounded=0;orthogonalLoop=1;jettySize=auto;html=1;entryX=0.5;entryY=1;entryDx=0;entryDy=0;strokeColor=default;align=center;verticalAlign=middle;fontFamily=Helvetica;fontSize=12;fontColor=default;labelBackgroundColor=default;startArrow=none;startFill=0;endArrow=none;endFill=0;" edge="1" parent="1" source="Ph7M2T8NQerXe_SHEotg-104" target="Ph7M2T8NQerXe_SHEotg-12">
          <mxGeometry relative="1" as="geometry" />
        </mxCell>
        <mxCell id="Ph7M2T8NQerXe_SHEotg-104" value="Name" style="ellipse;whiteSpace=wrap;html=1;align=center;strokeColor=default;verticalAlign=middle;fontFamily=Helvetica;fontSize=12;fontColor=default;labelBackgroundColor=default;fillColor=default;" vertex="1" parent="1">
          <mxGeometry x="1370" y="730" width="60" height="40" as="geometry" />
        </mxCell>
        <mxCell id="Ph7M2T8NQerXe_SHEotg-108" style="edgeStyle=orthogonalEdgeStyle;curved=0;rounded=0;orthogonalLoop=1;jettySize=auto;html=1;entryX=0.75;entryY=0;entryDx=0;entryDy=0;strokeColor=default;align=center;verticalAlign=middle;fontFamily=Helvetica;fontSize=12;fontColor=default;labelBackgroundColor=default;startArrow=none;startFill=0;endArrow=none;endFill=0;" edge="1" parent="1" source="Ph7M2T8NQerXe_SHEotg-107" target="Ph7M2T8NQerXe_SHEotg-10">
          <mxGeometry relative="1" as="geometry" />
        </mxCell>
        <mxCell id="Ph7M2T8NQerXe_SHEotg-107" value="Name" style="ellipse;whiteSpace=wrap;html=1;align=center;strokeColor=default;verticalAlign=middle;fontFamily=Helvetica;fontSize=12;fontColor=default;labelBackgroundColor=default;fillColor=default;" vertex="1" parent="1">
          <mxGeometry x="1310" y="330" width="60" height="40" as="geometry" />
        </mxCell>
        <mxCell id="Ph7M2T8NQerXe_SHEotg-110" style="edgeStyle=orthogonalEdgeStyle;curved=0;rounded=0;orthogonalLoop=1;jettySize=auto;html=1;entryX=0.5;entryY=0;entryDx=0;entryDy=0;strokeColor=default;align=center;verticalAlign=middle;fontFamily=Helvetica;fontSize=12;fontColor=default;labelBackgroundColor=default;startArrow=none;startFill=0;endArrow=none;endFill=0;" edge="1" parent="1" source="Ph7M2T8NQerXe_SHEotg-109" target="Ph7M2T8NQerXe_SHEotg-10">
          <mxGeometry relative="1" as="geometry" />
        </mxCell>
        <mxCell id="Ph7M2T8NQerXe_SHEotg-109" value="address" style="ellipse;whiteSpace=wrap;html=1;align=center;strokeColor=default;verticalAlign=middle;fontFamily=Helvetica;fontSize=12;fontColor=default;labelBackgroundColor=default;fillColor=default;" vertex="1" parent="1">
          <mxGeometry x="1215" y="340" width="60" height="40" as="geometry" />
        </mxCell>
        <mxCell id="Ph7M2T8NQerXe_SHEotg-111" value="&lt;u&gt;id&lt;/u&gt;" style="ellipse;whiteSpace=wrap;html=1;align=center;strokeColor=default;verticalAlign=middle;fontFamily=Helvetica;fontSize=12;fontColor=default;labelBackgroundColor=default;fillColor=default;" vertex="1" parent="1">
          <mxGeometry x="1280" y="490" width="60" height="40" as="geometry" />
        </mxCell>
        <mxCell id="Ph7M2T8NQerXe_SHEotg-119" style="edgeStyle=orthogonalEdgeStyle;curved=0;rounded=0;orthogonalLoop=1;jettySize=auto;html=1;entryX=0.25;entryY=0;entryDx=0;entryDy=0;strokeColor=default;align=center;verticalAlign=middle;fontFamily=Helvetica;fontSize=12;fontColor=default;labelBackgroundColor=default;startArrow=none;startFill=0;endArrow=none;endFill=0;" edge="1" parent="1" source="Ph7M2T8NQerXe_SHEotg-113" target="Ph7M2T8NQerXe_SHEotg-36">
          <mxGeometry relative="1" as="geometry" />
        </mxCell>
        <mxCell id="Ph7M2T8NQerXe_SHEotg-113" value="Name" style="ellipse;whiteSpace=wrap;html=1;align=center;strokeColor=default;verticalAlign=middle;fontFamily=Helvetica;fontSize=12;fontColor=default;labelBackgroundColor=default;fillColor=default;" vertex="1" parent="1">
          <mxGeometry x="850" y="310" width="60" height="40" as="geometry" />
        </mxCell>
        <mxCell id="Ph7M2T8NQerXe_SHEotg-115" value="&lt;u&gt;SSN&lt;/u&gt;" style="ellipse;whiteSpace=wrap;html=1;align=center;strokeColor=default;verticalAlign=middle;fontFamily=Helvetica;fontSize=12;fontColor=default;labelBackgroundColor=default;fillColor=default;" vertex="1" parent="1">
          <mxGeometry x="910" y="330" width="60" height="40" as="geometry" />
        </mxCell>
        <mxCell id="Ph7M2T8NQerXe_SHEotg-116" style="edgeStyle=orthogonalEdgeStyle;curved=0;rounded=0;orthogonalLoop=1;jettySize=auto;html=1;strokeColor=default;align=center;verticalAlign=middle;fontFamily=Helvetica;fontSize=12;fontColor=default;labelBackgroundColor=default;startArrow=none;startFill=0;endArrow=none;endFill=0;" edge="1" parent="1" source="Ph7M2T8NQerXe_SHEotg-115">
          <mxGeometry relative="1" as="geometry">
            <mxPoint x="909" y="420" as="targetPoint" />
          </mxGeometry>
        </mxCell>
        <mxCell id="Ph7M2T8NQerXe_SHEotg-118" style="edgeStyle=orthogonalEdgeStyle;curved=0;rounded=0;orthogonalLoop=1;jettySize=auto;html=1;entryX=0;entryY=0;entryDx=0;entryDy=0;strokeColor=default;align=center;verticalAlign=middle;fontFamily=Helvetica;fontSize=12;fontColor=default;labelBackgroundColor=default;startArrow=none;startFill=0;endArrow=none;endFill=0;" edge="1" parent="1" source="Ph7M2T8NQerXe_SHEotg-117" target="Ph7M2T8NQerXe_SHEotg-36">
          <mxGeometry relative="1" as="geometry" />
        </mxCell>
        <mxCell id="Ph7M2T8NQerXe_SHEotg-117" value="Gender" style="ellipse;whiteSpace=wrap;html=1;align=center;strokeColor=default;verticalAlign=middle;fontFamily=Helvetica;fontSize=12;fontColor=default;labelBackgroundColor=default;fillColor=default;" vertex="1" parent="1">
          <mxGeometry x="760" y="350" width="60" height="40" as="geometry" />
        </mxCell>
        <mxCell id="Ph7M2T8NQerXe_SHEotg-173" style="edgeStyle=orthogonalEdgeStyle;curved=1;rounded=0;orthogonalLoop=1;jettySize=auto;html=1;entryX=0;entryY=0.5;entryDx=0;entryDy=0;strokeColor=default;align=center;verticalAlign=middle;fontFamily=Helvetica;fontSize=12;fontColor=default;labelBackgroundColor=default;startArrow=none;startFill=0;endArrow=none;endFill=0;" edge="1" parent="1" source="Ph7M2T8NQerXe_SHEotg-120" target="Ph7M2T8NQerXe_SHEotg-36">
          <mxGeometry relative="1" as="geometry" />
        </mxCell>
        <mxCell id="Ph7M2T8NQerXe_SHEotg-120" value="Salary" style="ellipse;whiteSpace=wrap;html=1;align=center;strokeColor=default;verticalAlign=middle;fontFamily=Helvetica;fontSize=12;fontColor=default;labelBackgroundColor=default;fillColor=default;" vertex="1" parent="1">
          <mxGeometry x="740" y="420" width="60" height="40" as="geometry" />
        </mxCell>
        <mxCell id="Ph7M2T8NQerXe_SHEotg-124" style="edgeStyle=orthogonalEdgeStyle;curved=0;rounded=0;orthogonalLoop=1;jettySize=auto;html=1;strokeColor=default;align=center;verticalAlign=middle;fontFamily=Helvetica;fontSize=12;fontColor=default;labelBackgroundColor=default;startArrow=none;startFill=0;endArrow=none;endFill=0;" edge="1" parent="1" source="Ph7M2T8NQerXe_SHEotg-122">
          <mxGeometry relative="1" as="geometry">
            <mxPoint x="920" y="470" as="targetPoint" />
          </mxGeometry>
        </mxCell>
        <mxCell id="Ph7M2T8NQerXe_SHEotg-122" value="Birth_date" style="ellipse;whiteSpace=wrap;html=1;align=center;strokeColor=default;verticalAlign=middle;fontFamily=Helvetica;fontSize=12;fontColor=default;labelBackgroundColor=default;fillColor=default;" vertex="1" parent="1">
          <mxGeometry x="940" y="480" width="60" height="40" as="geometry" />
        </mxCell>
        <mxCell id="Ph7M2T8NQerXe_SHEotg-127" style="edgeStyle=orthogonalEdgeStyle;curved=0;rounded=0;orthogonalLoop=1;jettySize=auto;html=1;entryX=0.5;entryY=0;entryDx=0;entryDy=0;strokeColor=default;align=center;verticalAlign=middle;fontFamily=Helvetica;fontSize=12;fontColor=default;labelBackgroundColor=default;startArrow=none;startFill=0;endArrow=none;endFill=0;" edge="1" parent="1" source="Ph7M2T8NQerXe_SHEotg-125" target="Ph7M2T8NQerXe_SHEotg-9">
          <mxGeometry relative="1" as="geometry" />
        </mxCell>
        <mxCell id="Ph7M2T8NQerXe_SHEotg-125" value="Degree" style="ellipse;whiteSpace=wrap;html=1;align=center;strokeColor=default;verticalAlign=middle;fontFamily=Helvetica;fontSize=12;fontColor=default;labelBackgroundColor=default;fillColor=default;" vertex="1" parent="1">
          <mxGeometry x="610" y="470" width="60" height="40" as="geometry" />
        </mxCell>
        <mxCell id="Ph7M2T8NQerXe_SHEotg-130" style="edgeStyle=orthogonalEdgeStyle;curved=0;rounded=0;orthogonalLoop=1;jettySize=auto;html=1;exitX=0.5;exitY=1;exitDx=0;exitDy=0;entryX=0;entryY=0.5;entryDx=0;entryDy=0;strokeColor=default;align=center;verticalAlign=middle;fontFamily=Helvetica;fontSize=12;fontColor=default;labelBackgroundColor=default;startArrow=none;startFill=0;endArrow=none;endFill=0;" edge="1" parent="1" source="Ph7M2T8NQerXe_SHEotg-129" target="Ph7M2T8NQerXe_SHEotg-11">
          <mxGeometry relative="1" as="geometry" />
        </mxCell>
        <mxCell id="Ph7M2T8NQerXe_SHEotg-129" value="Spectialization" style="ellipse;whiteSpace=wrap;html=1;align=center;strokeColor=default;verticalAlign=middle;fontFamily=Helvetica;fontSize=12;fontColor=default;labelBackgroundColor=default;fillColor=default;" vertex="1" parent="1">
          <mxGeometry x="80" y="740" width="90" height="40" as="geometry" />
        </mxCell>
        <mxCell id="Ph7M2T8NQerXe_SHEotg-133" style="edgeStyle=orthogonalEdgeStyle;curved=0;rounded=0;orthogonalLoop=1;jettySize=auto;html=1;entryX=0.5;entryY=0;entryDx=0;entryDy=0;strokeColor=default;align=center;verticalAlign=middle;fontFamily=Helvetica;fontSize=12;fontColor=default;labelBackgroundColor=default;startArrow=none;startFill=0;endArrow=none;endFill=0;" edge="1" parent="1" source="Ph7M2T8NQerXe_SHEotg-132" target="Ph7M2T8NQerXe_SHEotg-18">
          <mxGeometry relative="1" as="geometry" />
        </mxCell>
        <mxCell id="Ph7M2T8NQerXe_SHEotg-132" value="Language" style="ellipse;shape=doubleEllipse;margin=3;whiteSpace=wrap;html=1;align=center;strokeColor=default;verticalAlign=middle;fontFamily=Helvetica;fontSize=12;fontColor=default;labelBackgroundColor=default;fillColor=default;" vertex="1" parent="1">
          <mxGeometry x="1150" y="720" width="80" height="30" as="geometry" />
        </mxCell>
        <mxCell id="Ph7M2T8NQerXe_SHEotg-135" style="edgeStyle=orthogonalEdgeStyle;curved=0;rounded=0;orthogonalLoop=1;jettySize=auto;html=1;entryX=1;entryY=0.25;entryDx=0;entryDy=0;strokeColor=default;align=center;verticalAlign=middle;fontFamily=Helvetica;fontSize=12;fontColor=default;labelBackgroundColor=default;startArrow=none;startFill=0;endArrow=none;endFill=0;" edge="1" parent="1" source="Ph7M2T8NQerXe_SHEotg-134" target="Ph7M2T8NQerXe_SHEotg-16">
          <mxGeometry relative="1" as="geometry" />
        </mxCell>
        <mxCell id="Ph7M2T8NQerXe_SHEotg-134" value="Expiry_Date" style="ellipse;whiteSpace=wrap;html=1;align=center;strokeColor=default;verticalAlign=middle;fontFamily=Helvetica;fontSize=12;fontColor=default;labelBackgroundColor=default;fillColor=default;" vertex="1" parent="1">
          <mxGeometry x="870" y="1020" width="80" height="40" as="geometry" />
        </mxCell>
        <mxCell id="Ph7M2T8NQerXe_SHEotg-138" style="edgeStyle=orthogonalEdgeStyle;curved=0;rounded=0;orthogonalLoop=1;jettySize=auto;html=1;entryX=1;entryY=0.75;entryDx=0;entryDy=0;strokeColor=default;align=center;verticalAlign=middle;fontFamily=Helvetica;fontSize=12;fontColor=default;labelBackgroundColor=default;startArrow=none;startFill=0;endArrow=none;endFill=0;" edge="1" parent="1" source="Ph7M2T8NQerXe_SHEotg-137" target="Ph7M2T8NQerXe_SHEotg-16">
          <mxGeometry relative="1" as="geometry" />
        </mxCell>
        <mxCell id="Ph7M2T8NQerXe_SHEotg-137" value="BarCode" style="ellipse;whiteSpace=wrap;html=1;align=center;fontStyle=4;strokeColor=default;verticalAlign=middle;fontFamily=Helvetica;fontSize=12;fontColor=default;labelBackgroundColor=default;fillColor=default;" vertex="1" parent="1">
          <mxGeometry x="870" y="1090" width="100" height="40" as="geometry" />
        </mxCell>
        <mxCell id="Ph7M2T8NQerXe_SHEotg-140" style="edgeStyle=orthogonalEdgeStyle;curved=0;rounded=0;orthogonalLoop=1;jettySize=auto;html=1;entryX=0;entryY=0.5;entryDx=0;entryDy=0;strokeColor=default;align=center;verticalAlign=middle;fontFamily=Helvetica;fontSize=12;fontColor=default;labelBackgroundColor=default;startArrow=none;startFill=0;endArrow=none;endFill=0;" edge="1" parent="1" source="Ph7M2T8NQerXe_SHEotg-139" target="Ph7M2T8NQerXe_SHEotg-16">
          <mxGeometry relative="1" as="geometry" />
        </mxCell>
        <mxCell id="Ph7M2T8NQerXe_SHEotg-139" value="Name" style="ellipse;whiteSpace=wrap;html=1;align=center;strokeColor=default;verticalAlign=middle;fontFamily=Helvetica;fontSize=12;fontColor=default;labelBackgroundColor=default;fillColor=default;" vertex="1" parent="1">
          <mxGeometry x="640" y="1080" width="70" height="30" as="geometry" />
        </mxCell>
        <mxCell id="Ph7M2T8NQerXe_SHEotg-143" style="edgeStyle=orthogonalEdgeStyle;curved=0;rounded=0;orthogonalLoop=1;jettySize=auto;html=1;entryX=0.25;entryY=0;entryDx=0;entryDy=0;strokeColor=default;align=center;verticalAlign=middle;fontFamily=Helvetica;fontSize=12;fontColor=default;labelBackgroundColor=default;startArrow=none;startFill=0;endArrow=none;endFill=0;" edge="1" parent="1" source="Ph7M2T8NQerXe_SHEotg-142" target="Ph7M2T8NQerXe_SHEotg-16">
          <mxGeometry relative="1" as="geometry" />
        </mxCell>
        <mxCell id="Ph7M2T8NQerXe_SHEotg-142" value="Type" style="ellipse;whiteSpace=wrap;html=1;align=center;strokeColor=default;verticalAlign=middle;fontFamily=Helvetica;fontSize=12;fontColor=default;labelBackgroundColor=default;fillColor=default;" vertex="1" parent="1">
          <mxGeometry x="690" y="990" width="70" height="30" as="geometry" />
        </mxCell>
        <mxCell id="Ph7M2T8NQerXe_SHEotg-149" style="edgeStyle=orthogonalEdgeStyle;curved=0;rounded=0;orthogonalLoop=1;jettySize=auto;html=1;entryX=1;entryY=0.25;entryDx=0;entryDy=0;strokeColor=default;align=center;verticalAlign=middle;fontFamily=Helvetica;fontSize=12;fontColor=default;labelBackgroundColor=default;startArrow=none;startFill=0;endArrow=none;endFill=0;exitX=0.5;exitY=1;exitDx=0;exitDy=0;" edge="1" parent="1" source="Ph7M2T8NQerXe_SHEotg-145" target="Ph7M2T8NQerXe_SHEotg-19">
          <mxGeometry relative="1" as="geometry" />
        </mxCell>
        <mxCell id="Ph7M2T8NQerXe_SHEotg-145" value="Date" style="ellipse;whiteSpace=wrap;html=1;align=center;strokeColor=default;verticalAlign=middle;fontFamily=Helvetica;fontSize=12;fontColor=default;labelBackgroundColor=default;fillColor=default;" vertex="1" parent="1">
          <mxGeometry x="1250" y="1110" width="70" height="30" as="geometry" />
        </mxCell>
        <mxCell id="Ph7M2T8NQerXe_SHEotg-148" value="Doctor_SSN" style="ellipse;whiteSpace=wrap;html=1;align=center;strokeColor=default;verticalAlign=middle;fontFamily=Helvetica;fontSize=12;fontColor=default;labelBackgroundColor=default;fillColor=default;" vertex="1" parent="1">
          <mxGeometry x="1245" y="1200" width="80" height="30" as="geometry" />
        </mxCell>
        <mxCell id="Ph7M2T8NQerXe_SHEotg-150" style="edgeStyle=orthogonalEdgeStyle;curved=0;rounded=0;orthogonalLoop=1;jettySize=auto;html=1;entryX=0.789;entryY=1.026;entryDx=0;entryDy=0;entryPerimeter=0;strokeColor=default;align=center;verticalAlign=middle;fontFamily=Helvetica;fontSize=12;fontColor=default;labelBackgroundColor=default;startArrow=none;startFill=0;endArrow=none;endFill=0;" edge="1" parent="1" source="Ph7M2T8NQerXe_SHEotg-148" target="Ph7M2T8NQerXe_SHEotg-19">
          <mxGeometry relative="1" as="geometry" />
        </mxCell>
        <mxCell id="Ph7M2T8NQerXe_SHEotg-152" value="Room#" style="ellipse;whiteSpace=wrap;html=1;align=center;strokeColor=default;verticalAlign=middle;fontFamily=Helvetica;fontSize=12;fontColor=default;labelBackgroundColor=default;fillColor=default;" vertex="1" parent="1">
          <mxGeometry x="1020" y="1130" width="70" height="30" as="geometry" />
        </mxCell>
        <mxCell id="Ph7M2T8NQerXe_SHEotg-153" style="edgeStyle=orthogonalEdgeStyle;curved=0;rounded=0;orthogonalLoop=1;jettySize=auto;html=1;exitX=1;exitY=0.5;exitDx=0;exitDy=0;entryX=0;entryY=0.25;entryDx=0;entryDy=0;strokeColor=default;align=center;verticalAlign=middle;fontFamily=Helvetica;fontSize=12;fontColor=default;labelBackgroundColor=default;startArrow=none;startFill=0;endArrow=none;endFill=0;" edge="1" parent="1" source="Ph7M2T8NQerXe_SHEotg-152" target="Ph7M2T8NQerXe_SHEotg-19">
          <mxGeometry relative="1" as="geometry" />
        </mxCell>
        <mxCell id="Ph7M2T8NQerXe_SHEotg-156" style="edgeStyle=orthogonalEdgeStyle;curved=0;rounded=0;orthogonalLoop=1;jettySize=auto;html=1;entryX=0;entryY=0.25;entryDx=0;entryDy=0;strokeColor=default;align=center;verticalAlign=middle;fontFamily=Helvetica;fontSize=12;fontColor=default;labelBackgroundColor=default;startArrow=none;startFill=0;endArrow=none;endFill=0;" edge="1" parent="1" source="Ph7M2T8NQerXe_SHEotg-155" target="Ph7M2T8NQerXe_SHEotg-17">
          <mxGeometry relative="1" as="geometry" />
        </mxCell>
        <mxCell id="Ph7M2T8NQerXe_SHEotg-155" value="Name" style="ellipse;whiteSpace=wrap;html=1;align=center;strokeColor=default;verticalAlign=middle;fontFamily=Helvetica;fontSize=12;fontColor=default;labelBackgroundColor=default;fillColor=default;" vertex="1" parent="1">
          <mxGeometry x="380" y="1210" width="70" height="30" as="geometry" />
        </mxCell>
        <mxCell id="Ph7M2T8NQerXe_SHEotg-159" style="edgeStyle=orthogonalEdgeStyle;curved=0;rounded=0;orthogonalLoop=1;jettySize=auto;html=1;entryX=1;entryY=0.25;entryDx=0;entryDy=0;strokeColor=default;align=center;verticalAlign=middle;fontFamily=Helvetica;fontSize=12;fontColor=default;labelBackgroundColor=default;startArrow=none;startFill=0;endArrow=none;endFill=0;" edge="1" parent="1" source="Ph7M2T8NQerXe_SHEotg-158" target="Ph7M2T8NQerXe_SHEotg-17">
          <mxGeometry relative="1" as="geometry" />
        </mxCell>
        <mxCell id="Ph7M2T8NQerXe_SHEotg-158" value="National_id" style="ellipse;whiteSpace=wrap;html=1;align=center;fontStyle=4;strokeColor=default;verticalAlign=middle;fontFamily=Helvetica;fontSize=12;fontColor=default;labelBackgroundColor=default;fillColor=default;" vertex="1" parent="1">
          <mxGeometry x="560" y="1180" width="90" height="30" as="geometry" />
        </mxCell>
        <mxCell id="Ph7M2T8NQerXe_SHEotg-163" style="edgeStyle=orthogonalEdgeStyle;curved=0;rounded=0;orthogonalLoop=1;jettySize=auto;html=1;entryX=0.25;entryY=0;entryDx=0;entryDy=0;strokeColor=default;align=center;verticalAlign=middle;fontFamily=Helvetica;fontSize=12;fontColor=default;labelBackgroundColor=default;startArrow=none;startFill=0;endArrow=none;endFill=0;" edge="1" parent="1" source="Ph7M2T8NQerXe_SHEotg-161" target="Ph7M2T8NQerXe_SHEotg-17">
          <mxGeometry relative="1" as="geometry" />
        </mxCell>
        <mxCell id="Ph7M2T8NQerXe_SHEotg-161" value="Symptoms" style="ellipse;shape=doubleEllipse;margin=3;whiteSpace=wrap;html=1;align=center;strokeColor=default;verticalAlign=middle;fontFamily=Helvetica;fontSize=12;fontColor=default;labelBackgroundColor=default;fillColor=default;" vertex="1" parent="1">
          <mxGeometry x="440" y="1170" width="80" height="40" as="geometry" />
        </mxCell>
        <mxCell id="Ph7M2T8NQerXe_SHEotg-164" value="Gender" style="ellipse;whiteSpace=wrap;html=1;align=center;strokeColor=default;verticalAlign=middle;fontFamily=Helvetica;fontSize=12;fontColor=default;labelBackgroundColor=default;fillColor=default;" vertex="1" parent="1">
          <mxGeometry x="430" y="1310" width="70" height="30" as="geometry" />
        </mxCell>
        <mxCell id="Ph7M2T8NQerXe_SHEotg-165" style="edgeStyle=orthogonalEdgeStyle;curved=0;rounded=0;orthogonalLoop=1;jettySize=auto;html=1;entryX=0.354;entryY=1.021;entryDx=0;entryDy=0;entryPerimeter=0;strokeColor=default;align=center;verticalAlign=middle;fontFamily=Helvetica;fontSize=12;fontColor=default;labelBackgroundColor=default;startArrow=none;startFill=0;endArrow=none;endFill=0;" edge="1" parent="1" source="Ph7M2T8NQerXe_SHEotg-164" target="Ph7M2T8NQerXe_SHEotg-17">
          <mxGeometry relative="1" as="geometry" />
        </mxCell>
        <mxCell id="Ph7M2T8NQerXe_SHEotg-169" style="edgeStyle=orthogonalEdgeStyle;curved=0;rounded=0;orthogonalLoop=1;jettySize=auto;html=1;entryX=0.75;entryY=0;entryDx=0;entryDy=0;strokeColor=default;align=center;verticalAlign=middle;fontFamily=Helvetica;fontSize=12;fontColor=default;labelBackgroundColor=default;startArrow=none;startFill=0;endArrow=none;endFill=0;" edge="1" parent="1" source="Ph7M2T8NQerXe_SHEotg-166" target="Ph7M2T8NQerXe_SHEotg-14">
          <mxGeometry relative="1" as="geometry" />
        </mxCell>
        <mxCell id="Ph7M2T8NQerXe_SHEotg-166" value="&lt;u&gt;NID&lt;/u&gt;" style="ellipse;whiteSpace=wrap;html=1;align=center;strokeColor=default;verticalAlign=middle;fontFamily=Helvetica;fontSize=12;fontColor=default;labelBackgroundColor=default;fillColor=default;" vertex="1" parent="1">
          <mxGeometry x="600" y="750" width="70" height="30" as="geometry" />
        </mxCell>
        <mxCell id="Ph7M2T8NQerXe_SHEotg-171" style="edgeStyle=orthogonalEdgeStyle;curved=0;rounded=0;orthogonalLoop=1;jettySize=auto;html=1;entryX=1;entryY=0.5;entryDx=0;entryDy=0;strokeColor=default;align=center;verticalAlign=middle;fontFamily=Helvetica;fontSize=12;fontColor=default;labelBackgroundColor=default;startArrow=none;startFill=0;endArrow=none;endFill=0;" edge="1" parent="1" source="Ph7M2T8NQerXe_SHEotg-170" target="Ph7M2T8NQerXe_SHEotg-15">
          <mxGeometry relative="1" as="geometry" />
        </mxCell>
        <mxCell id="Ph7M2T8NQerXe_SHEotg-170" value="&lt;u&gt;PID&lt;/u&gt;" style="ellipse;whiteSpace=wrap;html=1;align=center;strokeColor=default;verticalAlign=middle;fontFamily=Helvetica;fontSize=12;fontColor=default;labelBackgroundColor=default;fillColor=default;" vertex="1" parent="1">
          <mxGeometry x="875" y="795" width="70" height="30" as="geometry" />
        </mxCell>
        <mxCell id="Ph7M2T8NQerXe_SHEotg-176" style="edgeStyle=orthogonalEdgeStyle;curved=0;rounded=1;orthogonalLoop=1;jettySize=auto;html=1;strokeColor=default;align=center;verticalAlign=middle;fontFamily=Helvetica;fontSize=12;fontColor=default;labelBackgroundColor=default;startArrow=none;startFill=0;endArrow=none;endFill=0;" edge="1" parent="1" source="Ph7M2T8NQerXe_SHEotg-35" target="Ph7M2T8NQerXe_SHEotg-36">
          <mxGeometry relative="1" as="geometry" />
        </mxCell>
        <mxCell id="Ph7M2T8NQerXe_SHEotg-179" style="edgeStyle=orthogonalEdgeStyle;curved=0;rounded=0;orthogonalLoop=1;jettySize=auto;html=1;entryX=0.25;entryY=1;entryDx=0;entryDy=0;strokeColor=default;align=center;verticalAlign=middle;fontFamily=Helvetica;fontSize=12;fontColor=default;labelBackgroundColor=default;startArrow=none;startFill=0;endArrow=none;endFill=0;fontStyle=0" edge="1" parent="1" source="Ph7M2T8NQerXe_SHEotg-178" target="Ph7M2T8NQerXe_SHEotg-19">
          <mxGeometry relative="1" as="geometry" />
        </mxCell>
        <mxCell id="Ph7M2T8NQerXe_SHEotg-178" value="id" style="ellipse;whiteSpace=wrap;html=1;align=center;fontStyle=4;strokeColor=default;verticalAlign=middle;fontFamily=Helvetica;fontSize=12;fontColor=default;labelBackgroundColor=default;fillColor=default;" vertex="1" parent="1">
          <mxGeometry x="1030" y="1190" width="75" height="40" as="geometry" />
        </mxCell>
      </root>
    </mxGraphModel>
  </diagram>
</mxfile>
